<?xml version="1.0" encoding="utf-8"?>
<!-- Generator: Adobe Illustrator 27.3.1, SVG Export Plug-In . SVG Version: 6.00 Build 0)  -->
<svg version="1.1" id="Layer_1" xmlns="http://www.w3.org/2000/svg" xmlns:xlink="http://www.w3.org/1999/xlink" x="0px" y="0px"
	 viewBox="0 0 3300 1980" style="enable-background:new 0 0 3300 1980;" xml:space="preserve">
<style type="text/css">
	.st0{fill:#13519B;}
</style>
<g>
	<path class="st0" d="M375.68,1603.36l10.87-33.68c0.81-2.52,80.26-248.85,114.76-367.38h-77.64l52.86-161.07
		c5.17-15.76,23.31-71.39,23.31-71.39l16.49-18.88c44.98-51.51,215.31-227.59,518.45-331.1l3.16-1.05
		c54.1-37.2,91.83-59.8,93.42-60.74l1.07-0.6c123.4-64.72,251.39-113.73,380.61-145.8c114.85-28.25,231.72-42.57,347.37-42.57
		c251.13,0,494.85,68.73,686.27,193.54c191.65,124.97,321.45,303.99,365.49,504.11c6.19,28.1,11.54,119.28,12.13,129.59l0.04,1.24
		c0.08,59.4-7.15,121.72-21.5,185.41c-0.64,2.85-16.03,62.49-16.8,65.12c-2.34,8.3-40.23,138.55-41.84,144.09l-5.44,18.69
		L375.68,1603.36z"/>
	<path d="M2152.38,1186.42c-8.74-0.83-16.5,5.58-17.33,14.32s5.58,16.5,14.32,17.33c8.74,0.83,16.5-5.58,17.33-14.32
		S2161.12,1187.25,2152.38,1186.42z"/>
	<g>
		<path d="M1021.99,968.84c-35.54,9.37-70.97,18.74-106.26,28.06c-12.42,65.35-25.23,129.35-38.43,191.94
			c36.22-6.03,72.57-12.19,109.03-18.42c31.69-5.24,63.02-40.06,69.35-77.87c3.86-22.81,7.69-45.76,11.47-68.85
			C1073.34,985.46,1052.9,960.51,1021.99,968.84z"/>
		<path d="M2886.91,1072.3c-41.58-188.88-162.87-363.13-354.36-488c-187.27-122.1-425.98-189.35-672.15-189.35
			c-113.56,0-228.28,14.05-341.15,41.82c-127.16,31.55-253.22,79.82-374.66,143.5c0,0-39.28,23.44-95.48,62.23l-3.02,0.82
			l-2.97,1.01C746.04,745.78,579.69,917.71,535.79,967.98l-13.02,14.91c0,0-16.51,50.63-21.69,66.42l-41.73,127.16h76.12
			c-26.81,99.02-124.33,401.16-124.33,401.16l2408.2,7.36h0.01c0,0,39.43-135.53,41.77-143.79l0.09-0.35
			c0.79-2.69,16-61.8,16.39-63.53c14-62.15,20.95-121.7,20.87-179.49C2898.47,1197.82,2892.8,1099.06,2886.91,1072.3z
			 M2014.01,1173.41c-0.64,9.85-6.88,58.34-7.52,68.17c-8.53,135.6-93.04,246.47-188.51,246.47c-80.01,0-850.49-0.32-850.49-0.32
			s-73-120.51-108.16-176.49c-2.99,0.31-5.98,0.61-8.96,0.91c-13.73,60.69-27.85,119.94-42.37,177.67
			c-88.89,0.38-177.01-0.69-264.08-4.06c43.18-129.64,83.65-271.49,121.35-424c-24.13,6.19-72.1,17.86-72.08,17.76
			c5.2-15.85,10.41-31.78,15.62-47.78c58.64-67.15,213.1-209.44,465.64-295.67c123.65-33.47,246.92,63.16,245.01,209.84
			c-0.6,33.2-1.81,70.04-5.05,95.15c-12.89,102.02-77.71,193.68-154.46,227.95c14.35,24.09,28.82,48.57,43.42,73.43
			c1.04-0.1,3.13-0.28,3.13-0.28s455.86-19.72,467.56-20.7c29.85-2.41,59.25-20.29,62.84-61.37c0.49-5.48,6.57-49.62,7.05-55.11
			c3.58-41.13-17.68-72.15-47.08-68.46c-4.24,0.52-8.47,1.03-12.7,1.55c-6.79,0.83-13.58,1.67-20.38,2.51
			c-51.97,6.45-103.86,13.15-155.65,20.06c-92.5,11.11-154.76-73.3-140.11-192.1c1.04-8.73,2.08-17.47,3.11-26.23
			c14.53-119.27,66.75-239.29,173.49-295.08c81.13-34.39,137.85-25.81,171.01-27.24c119.53,2.36,156.16,8.35,263.16,37.66
			c33.67,59.85,31.86,143.94,31.31,160.14c-106.51-21.3-190.1-35.68-286.79-16.12c-11.25,2.23-22.5,4.49-33.74,6.77
			c-28.63,5.9-54.94,44.73-58.61,85.66c-0.49,5.49-0.97,10.98-1.47,16.46c-3.7,40.9,16.94,70.12,46,65.47
			c1.06-0.17,2.12-0.35,3.18-0.52c0.67-0.11,1.33-0.22,2-0.33c60.45-9.88,114.53-18.53,176-18.12
			C1949.37,959.92,2022.51,1037.63,2014.01,1173.41z M2768.16,1413.59c-0.26,0.04-15.17,53.72-21.28,74.45h-295.68
			c4.84-11.5,10.73-25.5,17.97-42.71c17.52-47.79,30.34-95.12,38.2-141.78c0.27-1.61,0.54-3.21,0.8-4.78
			c3.82-23.72,6.35-47.26,7.53-70.61c58.87-13.62,116.93-29.74,174.01-48.27c-1.49-6.93-2.97-13.86-4.46-20.79
			c-4.31,0.46-8.62,0.89-12.92,1.32c0.72,3.34,1.43,6.69,2.15,10.03c-166.57,54.08-341.41,87.58-520.53,98.52
			c-38.27-1.49-67.02-32.67-64.26-68.19c2.76-35.55,33.79-62.15,69.33-60.77c116.85,17.18,236.06,24.12,356.19,20.38
			c-2.14-38.37-6.61-56.05-7.03-58.41c-70.44-387.46-569.12-632.18-1113.94-500.51c-71.14,16.93-139.56,38.96-204.65,64.65
			c108-56.62,226.64-103.92,352.98-135.26c608.08-149.6,1169.55,151.64,1249.18,560
			C2810.88,1192.97,2801.39,1300.13,2768.16,1413.59z M2403.32,1121.25c-3.71,0.09-7.42,0.18-11.12,0.26
			c-2.62-33.76-9.18-66.01-19.38-95.98C2386.48,1055.47,2396.81,1087.61,2403.32,1121.25z M2391.8,957.02
			c29.32,47.84,49.78,103.31,58.28,162.74c-6.14,0.23-13.05,0.47-20.39,0.71C2428.65,1060.74,2415.13,1005.06,2391.8,957.02z"/>
	</g>
	<path d="M2475.13,688.62c-6.22-4.22-12.46-8.42-18.85-12.53l-29.46,44.21c5.97,4.75,11.91,9.6,17.79,14.61L2475.13,688.62z"/>
	<path d="M2628.79,823.92c-5.28-6.13-10.74-12.16-16.28-18.16l-50.66,55.77c5.24,6.66,10.23,13.16,15.02,19.54L2628.79,823.92z"/>
	<path d="M2749.3,1402.34l-63.13-10.21c-1.98,8.93-4.03,17.45-6.14,25.51l60.76,9.82C2743.74,1419.09,2746.7,1410.72,2749.3,1402.34
		z"/>
	<path d="M2778.21,1218.2c0.03-8.75,0.02-17.49-0.33-26.22l-72.17,7.09c0.51,8.23,0.71,16.96,0.67,26.05L2778.21,1218.2z"/>
	<path d="M2738.7,1004.45c-3.07-7.84-6.32-15.62-9.72-23.34l-69.02,39.04c3.44,7.99,6.56,15.81,9.44,23.49L2738.7,1004.45z"/>
	<path d="M2294.99,592.63c-7.21-2.97-14.52-5.86-21.87-8.71l-14.72,34.12c6.89,3.18,14,6.58,21.23,10.14L2294.99,592.63z"/>
</g>
</svg>
